<?xml version="1.0" encoding="UTF-8"?>
<svg id="Layer_1" data-name="Layer 1" xmlns="http://www.w3.org/2000/svg" xmlns:xlink="http://www.w3.org/1999/xlink" viewBox="0 0 1024 768">
  <defs>
    <style>
      .cls-1 {
        fill: url(#linear-gradient);
      }

      .cls-2 {
        fill: url(#linear-gradient-2);
      }

      .cls-3 {
        stroke: #1f2221;
      }

      .cls-3, .cls-4, .cls-5, .cls-6 {
        fill: none;
        stroke-miterlimit: 10;
      }

      .cls-4 {
        stroke: #212121;
      }

      .cls-5 {
        stroke: #212122;
      }

      .cls-6 {
        stroke: #212120;
      }
    </style>
    <linearGradient id="linear-gradient" x1="122.17" y1="342.77" x2="246.15" y2="342.77" gradientUnits="userSpaceOnUse">
      <stop offset="0" stop-color="#fff"/>
      <stop offset="0" stop-color="#e6c306"/>
      <stop offset="0" stop-color="#dab609"/>
      <stop offset=".25" stop-color="#ccc335"/>
      <stop offset=".5" stop-color="#92c166"/>
      <stop offset=".75" stop-color="#77bd75"/>
      <stop offset="1" stop-color="#3e8f60"/>
      <stop offset="1" stop-color="#000"/>
    </linearGradient>
    <linearGradient id="linear-gradient-2" x1="135.31" y1="380.93" x2="248.01" y2="380.93" xlink:href="#linear-gradient"/>
  </defs>
  <g>
    <path class="cls-1" d="M164.31,372l-42.04,24.46c-.19,.11-.07,.4,.14,.34,10.25-3.39,62.84-19.87,66.41-20.94,3.78-1.13,1.62-3.75,1.67-3.48,0,0-7.34-7.47-9.02-9.27-1.67-1.8,1.42-2.96,1.42-2.96,0,0,60.5-32.58,62.85-35.29,1.53-1.76-1.72-3.06-.9-2.7l-55.95-32.72c-3.59-1.54-6.55,0-6.55,0l-57.5,34.72c-1.67,1.16-1.6,3.39-1.6,3.39l-.54,57.2c0,.51,.54,.85,.99,.62l20.17-10.14c.48-.24,.78-.71,.79-1.25,.05-3.9,.23-20.13,.12-29.15-.13-10.3,2.7-11.08,2.7-11.08,0,0,28.72-15.97,33.23-18.68,4.51-2.7,7.99-.77,7.99-.77,0,0,7.99,4.38,14.43,7.47,6.44,3.09,1.03,5.28,1.03,5.28,0,0-40.96,22.67-44.82,24.21-3.86,1.55-1.03,3.99-1.03,3.99l10.59,10.59s1.97,1.82-.38,3.58-4.19,2.57-4.19,2.57Z"/>
    <path class="cls-2" d="M135.82,400.17l25.62-7.2c.69-.19,1.43-.09,2.05,.28l20.62,12.51c.59,.36,1.32,.36,1.92,.02l40.1-23.14c.54-.31,.87-.88,.87-1.5l.18-36.86c0-.46,.25-.87,.65-1.09l18.82-10.16c.63-.34,1.39,.12,1.38,.83l-.53,59.81c0,.52-.28,1-.73,1.27l-54.31,31.9s-5.91,4.62-13.48,.18c-6.7-3.92-36.51-21.56-43.31-25.59-.52-.31-.41-1.09,.17-1.26Z"/>
  </g>
  <path class="cls-3" d="M283,337l.51,56.98h12.35v-24.35h21.09v-10.71h-20.06v-15.1h19.55v-11.69l-26.24,.49s-7.2-.49-7.2,4.38Z"/>
  <path class="cls-4" d="M331.65,333.83h11.3l-1.57,37.05,11.3-8.79-13.19,45.84,3.14-27.94-9.42,12.56s-1.26-59.02-1.57-58.71Z"/>
  <g>
    <path class="cls-6" d="M381.86,345.21s-21.98,.94-23.23,27.31c0,0-.75,14.52,12.49,20.56,2.59,1.18,5.38,2.02,8.62,2.47,.74,.1,1.15,.16,1.94,.11,1.78-.12,5.37-.1,9.13-1.24,6.26-1.9,13.29-6.12,14.46-15.67l-13.68,.05s-.8,2.94-3.56,5.23c-1.71,1.42-5.12,2.54-8.73,1.94,0,0-3.79-.05-6.9-3.88-1.4-1.72-2.05-4.46-2.15-7.54l35.78-.14s2.83-29.2-24.17-29.2Z"/>
    <path class="cls-4" d="M371.35,366.52h22.6s-2.69-10.72-11.3-10.67c-8.62,.04-11.3,10.67-11.3,10.67Z"/>
  </g>
  <polygon class="cls-5" points="411.65 348.21 429.28 348.21 434.93 361.22 441.84 348.21 460.17 348.21 444.38 369.34 460.17 394.07 444.76 394.07 435.87 379.74 429.35 394.07 411.65 394.07 425.35 369.53 411.65 348.21"/>
  <g>
    <rect class="cls-4" x="471.79" y="331.23" width="92.87" height="12.87" rx=".6" ry=".6"/>
    <polygon class="cls-4" points="484.35 348.18 483.1 386.17 471.48 384.92 484.35 407.52 459.86 377.38 474.62 378.95 472.11 348.18 484.35 348.18"/>
  </g>
  <path class="cls-4" d="M551.92,395.78s-17.1,1.96-25.74-12.34c-2.98-4.93-5.4-11.51-5.16-20.95,0,0,.56-17.21,11.45-25.83,2.24-1.77,4.69-3.07,7.36-4.04,3.1-1.13,6.54-1.77,11.02-1.47,10.6,.7,17.76,3.94,22.42,8.3,7.77,7.27,8.7,15.6,8.7,15.6h-14.09s-1.14-3.36-4.43-6.83c-2.41-2.53-6.27-3.84-11.29-4.07,0,0-8.27-1.18-14.12,5.5-2.66,3.04-4.45,7.64-4.57,14.15-.13,7.4,2.03,12.07,4.88,15.03,5.17,5.37,12.76,5.14,12.76,5.14,0,0,4.76,.34,9.58-2.13,3.08-1.57,6.15-4.33,7.75-9.12l14.32,.37s-2.02,9.3-9.71,16.13c-4.64,4.12-11.06,6.71-21.14,6.57Z"/>
  <path class="cls-4" d="M609.27,353.05l.02-19.65c0-.67-.55-1.22-1.21-1.23l-9.24-.15c-.69-.01-1.62,.27-1.62,.96l-.1,62.13c0,.68,1.03,1.29,1.72,1.29h9.05c.68,0,1.23-.55,1.23-1.23v-29.95c.59-4.36,4.3-7.65,8.64-7.67,4.38-.02,8.14,3.28,8.73,7.67v30.31c0,.68,.56,1.24,1.24,1.24h9.43c.77,0,.76-.58,.76-1.35l.1-31.47c0-3.06-.71-6.08-2.21-8.75-2.19-3.88-6.31-8.33-13.75-8.33-13.19,0-12.78,6.18-12.78,6.18Z"/>
  <path class="cls-4" d="M671.94,348.41s-6.55-.32-12.61,3.33c-3.62,2.18-6.73,5.57-8.2,11.2-.71,2.72-1.58,5.89-1.24,9.69,.28,3.09,.88,6.04,1.65,8.35,1.35,4.06,2.93,5.91,5.15,8.04,3.02,2.89,7.12,4.82,9.99,5.46,3.46,.77,5.87,.62,5.87,.62,0,0,2.47,.21,7.42-1.65,1.95-.73,4.12-1.65,7.02-3.81v5.25h10.47v-45.09h-10.06v5.54s-1.9-2.34-5.52-4.35c-2.45-1.37-5.97-2.32-9.95-2.57Z"/>
  <path class="cls-4" d="M715.18,350.04v47.44h11.09v-31.01s.41-6.78,6.16-6.78h5.75v-11.71s-11.91-2.26-10.88,6.98h-2.26v-4.93h-9.86Z"/>
  <g>
    <path class="cls-4" d="M770.96,348.08c.42,.07-4.23-.77-9.71,1.02-3.64,1.19-7.2,3.5-9.84,7.92-2.13,3.58-3.7,8.09-3.46,14.94,.1,3.07,.8,7.13,1.42,9.46,1.67,6.26,4.65,8.07,8.17,10.35,6.81,4.39,14.82,3.45,13.28,3.45,0,0,4.66,.44,9.45-1.79,1.6-.74,2.8-1.63,4.34-3.32,2.85-3.12,1.41,5.18-2.81,10.22-1.92,2.29-4.77,4.41-7.92,4.34-2.71-.06-3.87-.09-5.53-.65-5.36-1.81-6.05-5.76-5.96-5.36h-11.57c-.08-.33-.6,3.27,1.75,7.12,1.64,2.68,4.66,6.4,10.2,8.08,2.74,.83,6.62,1.01,10.73,1.15,3.89,.13,7-.34,9.71-1.02,4.96-1.25,7.18-3.44,9.2-5.88,3.36-4.06,3.16-9.19,3.25-7.4l.14-51.34h-9.65v6.57s-2.2-2.7-6.51-5.18c-2.21-1.28-5.41-2.26-8.69-2.68Z"/>
    <circle class="cls-4" cx="770.15" cy="371.69" r="12.75"/>
  </g>
  <g>
    <path class="cls-4" d="M833.59,346.52s-21.98,.94-23.23,27.31c0,0-.75,14.52,12.49,20.56,2.59,1.18,5.38,2.02,8.62,2.47,.74,.1,1.15,.16,1.94,.11,1.78-.12,5.37-.1,9.13-1.24,6.26-1.9,13.29-6.12,14.46-15.67l-13.68,.05s-.8,2.94-3.56,5.23c-1.71,1.42-5.12,2.54-8.73,1.94,0,0-3.79-.05-6.9-3.88-1.4-1.72-2.05-4.46-2.15-7.54l35.78-.14s2.83-29.2-24.17-29.2Z"/>
    <path class="cls-4" d="M823.08,367.83h22.6s-2.69-10.72-11.3-10.67c-8.62,.04-11.3,10.67-11.3,10.67Z"/>
  </g>
  <circle class="cls-4" cx="672.76" cy="372.07" r="12.75"/>
</svg>