<?xml version="1.0" encoding="UTF-8"?>
<svg id="Layer_1" data-name="Layer 1" xmlns="http://www.w3.org/2000/svg" xmlns:xlink="http://www.w3.org/1999/xlink" viewBox="0 0 722.21 140.07">
  <defs>
    <style>
      .cls-1 {
        fill: url(#linear-gradient-2);
      }

      .cls-2 {
        fill: none;
      }

      .cls-2, .cls-3 {
        stroke: #000;
        stroke-miterlimit: 10;
        fill:white;
      }

      .cls-3 {
        fill: #333;
      }

      .cls-4 {
        fill: url(#linear-gradient);
      }
    </style>
    <linearGradient id="linear-gradient" x1="0" y1="-538.05" x2="123.91" y2="-538.05" gradientTransform="translate(0 -484.01) scale(1 -1)" gradientUnits="userSpaceOnUse">
      <stop offset="0" stop-color="#fff"/>
      <stop offset="0" stop-color="#e6c306"/>
      <stop offset="0" stop-color="#dab609"/>
      <stop offset=".25" stop-color="#ccc335"/>
      <stop offset=".5" stop-color="#92c166"/>
      <stop offset=".75" stop-color="#77bd75"/>
      <stop offset="1" stop-color="#3e8f60"/>
      <stop offset="1" stop-color="#000"/>
    </linearGradient>
    <linearGradient id="linear-gradient-2" x1="13.21" y1="-576.08" x2="126.01" y2="-576.08" gradientTransform="translate(0 -484.01) scale(1 -1)" gradientUnits="userSpaceOnUse">
      <stop offset="0" stop-color="#fff"/>
      <stop offset="0" stop-color="#e6c306"/>
      <stop offset="0" stop-color="#dab609"/>
      <stop offset=".25" stop-color="#ccc335"/>
      <stop offset=".5" stop-color="#92c166"/>
      <stop offset=".75" stop-color="#77bd75"/>
      <stop offset="1" stop-color="#3e8f60"/>
      <stop offset="1" stop-color="#000"/>
    </linearGradient>
  </defs>
  <g>
    <path class="cls-4" d="M42.11,83.27L.11,107.77c-.2,.1-.1,.4,.1,.3,10.2-3.4,62.8-19.9,66.4-20.9,3.8-1.1,1.6-3.8,1.7-3.5,0,0-7.3-7.5-9-9.3s1.4-3,1.4-3c0,0,60.5-32.6,62.8-35.3,1.5-1.8-1.7-3.1-.9-2.7L66.71,.67c-3.6-1.5-6.5,0-6.5,0L2.71,35.37c-1.7,1.2-1.6,3.4-1.6,3.4l-.6,57.2c0,.5,.5,.8,1,.6l20.2-10.1c.5-.2,.8-.7,.8-1.2,0-3.9,.2-20.1,.1-29.2-.1-10.3,2.7-11.1,2.7-11.1,0,0,28.7-16,33.2-18.7s8-.8,8-.8c0,0,8,4.4,14.4,7.5,6.4,3.1,1,5.3,1,5.3,0,0-40.9,22.7-44.7,24.2s-1,4-1,4l10.6,10.6s2,1.8-.4,3.6c-2.4,1.7-4.2,2.5-4.3,2.6h0Z"/>
    <path class="cls-1" d="M13.61,111.37l25.6-7.2c.7-.2,1.4-.1,2,.3l20.7,12.5c.6,.4,1.3,.4,1.9,0l40.2-23.1c.5-.3,.9-.9,.9-1.5l.2-36.9c0-.5,.2-.9,.7-1.1l18.8-10.2c.6-.3,1.4,.1,1.4,.8l-.5,59.8c0,.5-.3,1-.7,1.3l-54.3,31.9s-5.9,4.6-13.5,.2c-6.7-3.9-36.5-21.6-43.3-25.6-.7-.2-.6-1-.1-1.2h0Z"/>
  </g>
  <path class="cls-2" d="M160.81,48.27l.5,57h12.4v-24.4h21.1v-10.7h-20.1v-15.1h19.6v-11.7l-26.3,.5s-7.2-.5-7.2,4.4Z"/>
  <path class="cls-2" d="M209.51,45.07h11.3l-1.6,37,11.3-8.8-13.2,45.8,3.1-27.9-9.4,12.6s-1.2-59-1.5-58.7h0Z"/>
  <polygon class="cls-2" points="289.51 59.47 307.11 59.47 312.81 72.47 319.71 59.47 338.01 59.47 322.21 80.57 338.01 105.27 322.61 105.27 313.71 90.97 307.21 105.27 289.51 105.27 303.21 80.77 289.51 59.47"/>
  <g>
    <path class="cls-2" d="M350.21,42.47h11.7c.3,0,.6,.3,.6,.6v11.7c0,.3-.3,.6-.6,.6h-11.7c-.3,0-.6-.3-.6-.6v-11.7c0-.3,.3-.6,.6-.6Z"/>
    <polygon class="cls-2" points="362.21 59.37 360.91 97.37 349.31 96.17 362.21 118.77 337.71 88.57 352.51 90.17 349.91 59.37 362.21 59.37"/>
  </g>
  <path class="cls-2" d="M429.81,106.97s-17.1,2-25.7-12.3c-3-4.9-5.4-11.5-5.2-20.9,0,0,.6-17.2,11.5-25.8,2.2-1.8,4.7-3.1,7.4-4,3.1-1.1,6.5-1.8,11-1.5,10.6,.7,17.8,3.9,22.4,8.3,7.8,7.3,8.7,15.6,8.7,15.6h-14.1s-1.1-3.4-4.4-6.8c-2.4-2.5-6.3-3.8-11.3-4.1,0,0-8.3-1.2-14.1,5.5-2.7,3-4.5,7.6-4.6,14.2-.1,7.4,2,12.1,4.9,15,5.2,5.4,12.8,5.1,12.8,5.1,0,0,4.8,.3,9.6-2.1,3.1-1.6,6.1-4.3,7.8-9.1l14.3,.4s-2,9.3-9.7,16.1c-4.9,4-11.3,6.6-21.3,6.4h0Z"/>
  <path class="cls-2" d="M487.11,64.27v-19.7c0-.7-.5-1.2-1.2-1.2l-9.2-.2c-.7,0-1.6,.3-1.6,1l-.1,62.1c0,.7,1,1.3,1.7,1.3h9c.7,0,1.2-.6,1.2-1.2v-29.9c.6-4.4,4.3-7.7,8.6-7.7s8.1,3.3,8.7,7.7v30.3c0,.7,.6,1.2,1.2,1.2h9.4c.8,0,.8-.6,.8-1.3l.1-31.5c0-3.1-.7-6.1-2.2-8.8-2.2-3.9-6.3-8.3-13.8-8.3-13,0-12.6,6.2-12.6,6.2h0Z"/>
  <path class="cls-2" d="M583.61,61.46v47.4h11.1v-31s.4-6.8,6.2-6.8h5.8v-11.7s-11.9-2.3-10.9,7h-2.3v-4.9h-9.9Z"/>
  <g>
    <path class="cls-2" d="M697.49,60s-22,.9-23.2,27.3c0,0-.8,14.5,12.5,20.6,2.6,1.2,5.4,2,8.6,2.5,.7,.1,1.2,.2,1.9,.1,1.8-.1,5.4-.1,9.1-1.2,6.3-1.9,13.3-6.1,14.5-15.7l-13.7,.1s-.8,2.9-3.6,5.2c-1.7,1.4-5.1,2.5-8.7,1.9,0,0-3.8-.1-6.9-3.9-1.4-1.7-2-4.5-2.2-7.5l35.8-.1c.1-.1,2.9-29.3-24.1-29.3h0Z"/>
    <path class="cls-3" d="M686.99,81.3h22.6s-2.7-10.7-11.3-10.7c-8.6,.1-11.3,10.7-11.3,10.7Z"/>
  </g>
  <g>
    <path class="cls-2" d="M259.71,59.37s-22,.9-23.2,25.7c0,0-.8,13.7,12.5,19.3,2.6,1.1,5.4,1.9,8.6,2.3,.7,.1,1.1,.2,1.9,.1,1.8-.1,5.4-.1,9.1-1.2,6.3-1.8,13.3-5.8,14.5-14.8l-13.7,.1s-.8,2.8-3.6,4.9c-1.7,1.3-5.1,2.4-8.7,1.8,0,0-3.8-.1-6.9-3.7-1.4-1.6-2.1-4.2-2.1-7.1l35.8-.1c0,.2,2.8-27.2-24.2-27.3h0Z"/>
    <path class="cls-3" d="M249.21,79.47h22.6s-2.7-10.1-11.3-10.1-11.3,10.1-11.3,10.1h0Z"/>
  </g>
  <g>
    <path class="cls-2" d="M543.93,59.86s-6.5-.3-12.6,3.3c-3.6,2.2-6.7,5.6-8.2,11.2-.7,2.7-1.6,5.9-1.2,9.7,.3,3.1,.9,6,1.7,8.3,1.3,4.1,2.9,5.9,5.2,8,3,2.9,7.1,4.8,10,5.5,3.5,.8,5.9,.6,5.9,.6,0,0,2.5,.2,7.4-1.7,2-.7,4.1-1.7,7-3.8v5.2h10.5V61.16h-10.1v5.5s-1.9-2.3-5.5-4.3c-2.6-1.3-6.2-2.3-10.1-2.5h0Z"/>
    <circle class="cls-3" cx="544.73" cy="83.46" r="12.8"/>
  </g>
  <g>
    <path class="cls-2" d="M639.8,61.43c.4,.1-4.2-.8-9.7,1-3.6,1.2-7.2,3.5-9.8,7.9-2.1,3.6-3.7,8.1-3.5,14.9,.1,3.1,.8,7.1,1.4,9.5,1.7,6.3,4.7,8.1,8.2,10.3,6.8,4.4,14.8,3.4,13.3,3.4,0,0,4.7,.4,9.5-1.8,1.6-.7,2.8-1.6,4.3-3.3,2.8-3.1,1.4,5.2-2.8,10.2-1.9,2.3-4.8,4.4-7.9,4.3-2.7-.1-3.9-.1-5.5-.7-5.4-1.8-6-5.8-6-5.4h-11.6c-.1-.3-.6,3.3,1.8,7.1,1.6,2.7,4.7,6.4,10.2,8.1,2.7,.8,6.6,1,10.7,1.2,3.9,.1,7-.3,9.7-1,5-1.2,7.2-3.4,9.2-5.9,3.4-4.1,3.2-9.2,3.2-7.4l.1-51.3h-9.6v6.6s-2.2-2.7-6.5-5.2c-2.2-1-5.4-2-8.7-2.5h0Z"/>
    <circle class="cls-3" cx="639" cy="85.03" r="12.8"/>
  </g>
</svg>